<svg width="40" height="40" viewBox="0 0 40 40" fill="none" xmlns="http://www.w3.org/2000/svg">
<path d="M29.1667 10.8333H29.1834M11.6667 3.33325H28.3334C32.9357 3.33325 36.6667 7.06421 36.6667 11.6666V28.3333C36.6667 32.9356 32.9357 36.6666 28.3334 36.6666H11.6667C7.06433 36.6666 3.33337 32.9356 3.33337 28.3333V11.6666C3.33337 7.06421 7.06433 3.33325 11.6667 3.33325ZM26.6667 18.9499C26.8724 20.337 26.6355 21.7536 25.9896 22.9983C25.3438 24.2429 24.3219 25.2523 23.0694 25.8827C21.8169 26.5131 20.3975 26.7326 19.013 26.5098C17.6286 26.287 16.3496 25.6334 15.3581 24.6419C14.3666 23.6503 13.7129 22.3714 13.4902 20.9869C13.2674 19.6025 13.4868 18.1831 14.1173 16.9305C14.7477 15.678 15.757 14.6562 17.0017 14.0103C18.2463 13.3645 19.663 13.1276 21.05 13.3333C22.4649 13.5431 23.7748 14.2024 24.7862 15.2138C25.7976 16.2252 26.4569 17.535 26.6667 18.9499Z" stroke="#F1C480" stroke-width="2" stroke-linecap="round" stroke-linejoin="round"/>
</svg>
