<svg width="40" height="40" viewBox="0 0 40 40" fill="none" xmlns="http://www.w3.org/2000/svg">
<path d="M26.6667 13.3333C29.3189 13.3333 31.8624 14.3868 33.7378 16.2622C35.6131 18.1375 36.6667 20.6811 36.6667 23.3333V34.9999H30V23.3333C30 22.4492 29.6488 21.6014 29.0237 20.9762C28.3986 20.3511 27.5508 19.9999 26.6667 19.9999C25.7827 19.9999 24.9348 20.3511 24.3097 20.9762C23.6846 21.6014 23.3334 22.4492 23.3334 23.3333V34.9999H16.6667V23.3333C16.6667 20.6811 17.7203 18.1375 19.5956 16.2622C21.471 14.3868 24.0145 13.3333 26.6667 13.3333Z" stroke="#F1C480" stroke-width="2" stroke-linecap="round" stroke-linejoin="round"/>
<path d="M10 14.9999H3.33337V34.9999H10V14.9999Z" stroke="#F1C480" stroke-width="2" stroke-linecap="round" stroke-linejoin="round"/>
<path d="M6.66671 9.99992C8.50766 9.99992 10 8.50753 10 6.66659C10 4.82564 8.50766 3.33325 6.66671 3.33325C4.82576 3.33325 3.33337 4.82564 3.33337 6.66659C3.33337 8.50753 4.82576 9.99992 6.66671 9.99992Z" stroke="#F1C480" stroke-width="2" stroke-linecap="round" stroke-linejoin="round"/>
</svg>
