<svg width="152" height="48" viewBox="0 0 152 48" fill="none" xmlns="http://www.w3.org/2000/svg">
<path d="M8.88672 8L16.9854 12.7584L21.2417 11.8067L25.4388 12.7584L33.5375 8L34.4833 18.171L31.4685 28.1636L27.7443 29.8885L24.7294 37.2639L21.2417 40L17.7539 37.2639L14.6799 29.8885L10.9557 28.1636L8 18.171L8.88672 8Z" fill="#372C19"/>
<path d="M34.4833 18.171L33.5375 8L25.4388 12.7584L21.2417 11.8067V36.3717L19.7047 37.3829L21.2417 40L24.7294 37.2639L27.7443 29.8885L31.4685 28.1636L34.4833 18.171Z" fill="#F5D7A5"/>
<path d="M23.1333 33.6952H21.2417V35.1227H22.5335L23.1333 33.6952Z" fill="#896756"/>
<path d="M22.8969 37.3829L21.2417 36.3717L19.7047 37.3829H22.8969Z" fill="#896756"/>
<path d="M24.7294 37.2639L21.2369 40L22.8969 37.3829L24.7294 37.2639Z" fill="#896756"/>
<path d="M25.4388 12.7584L34.4833 18.171L31.8823 11.6877L33.5375 8L25.4388 12.7584Z" fill="#BAA074"/>
<path d="M25.4388 12.7584L21.2417 11.8067V21.9777L24.9659 23.2268L25.4388 12.7584Z" fill="#BAA074"/>
<path d="M23.7245 25.487H21.2417V33.6952H22.9372L23.7245 25.487Z" fill="#BAA074"/>
<path d="M22.8969 37.3829L21.2369 40L19.7047 37.3829H22.8969Z" fill="#BAA074"/>
<path d="M26.0299 27.9256L27.7443 29.8885L31.4685 28.1636L29.2812 23.7621L26.3846 25.0112L24.3156 24.1784L23.7245 25.487L26.0299 27.9256Z" fill="#BAA074"/>
<path d="M26.3049 23.2268L28.2172 23.5836V23.9405L26.3049 24.6543L24.5521 23.9405V23.5836L26.3049 23.2268Z" fill="#BAA074"/>
<path d="M28.5693 23.486L30.7051 22.6758L30.7957 22.8955L28.3354 23.9405L28.5693 23.486Z" fill="#BAA074"/>
<path d="M42.05 20.3014H44.1505V21.143C44.8817 20.4136 45.7058 20.0489 46.6228 20.0489C47.6762 20.0489 48.4972 20.3824 49.0858 21.0495C49.5939 21.6169 49.848 22.5427 49.848 23.827V29.41H47.7474V24.3226C47.7474 23.4249 47.6235 22.8045 47.3757 22.4616C47.134 22.1125 46.6941 21.9379 46.0559 21.9379C45.3619 21.9379 44.8693 22.1686 44.578 22.63C44.293 23.0851 44.1505 23.88 44.1505 25.0147V29.41H42.05V20.3014Z" fill="#5B6970"/>
<path d="M54.5881 20.3014V29.41H52.4969V20.3014H54.5881ZM52.1808 16.5139C52.1808 16.1461 52.3141 15.8281 52.5805 15.56C52.8469 15.2919 53.1661 15.1579 53.5378 15.1579C53.9158 15.1579 54.238 15.2919 54.5044 15.56C54.7709 15.8219 54.9041 16.143 54.9041 16.5233C54.9041 16.9036 54.7709 17.2278 54.5044 17.4958C54.2442 17.7639 53.9251 17.898 53.5471 17.898C53.1692 17.898 52.8469 17.7639 52.5805 17.4958C52.3141 17.2278 52.1808 16.9005 52.1808 16.5139Z" fill="#5B6970"/>
<path d="M65.9923 29.1949C65.9923 29.6251 65.9768 30.0023 65.9458 30.3265C65.921 30.6569 65.8839 30.9468 65.8343 31.1962C65.6856 31.882 65.3944 32.4711 64.9606 32.9637C64.1427 33.9113 63.0181 34.3851 61.5868 34.3851C60.3785 34.3851 59.384 34.0578 58.6033 33.4032C57.7978 32.7299 57.333 31.7978 57.2091 30.607H59.3096C59.3902 31.0559 59.5234 31.4019 59.7093 31.6451C60.143 32.2124 60.7751 32.4961 61.6053 32.4961C63.1358 32.4961 63.9011 31.5515 63.9011 29.6625V28.3907C63.0708 29.2448 62.1134 29.6718 61.0291 29.6718C59.796 29.6718 58.7861 29.223 57.9991 28.3252C57.206 27.415 56.8094 26.2772 56.8094 24.9118C56.8094 23.5838 57.1781 22.4554 57.9155 21.5265C58.7086 20.5414 59.7558 20.0489 61.057 20.0489C62.1971 20.0489 63.1451 20.4759 63.9011 21.3301V20.3014H65.9923V29.1949ZM63.9847 24.8744C63.9847 23.9891 63.7492 23.2815 63.2783 22.7515C62.8012 22.2091 62.1909 21.9379 61.4473 21.9379C60.6542 21.9379 60.0284 22.2341 59.5699 22.8264C59.1547 23.3563 58.9472 24.0421 58.9472 24.8837C58.9472 25.7129 59.1547 26.3925 59.5699 26.9224C60.0222 27.5022 60.648 27.7921 61.4473 27.7921C62.2467 27.7921 62.8787 27.4991 63.3434 26.9131C63.7709 26.3831 63.9847 25.7036 63.9847 24.8744Z" fill="#5B6970"/>
<path d="M68.6319 13.6149H70.7231V21.0589C71.4667 20.3855 72.2877 20.0489 73.1861 20.0489C74.2085 20.0489 75.0264 20.3824 75.6399 21.0495C76.1603 21.6293 76.4206 22.5552 76.4206 23.827V29.41H74.3293V24.0234C74.3293 23.2939 74.1992 22.7671 73.939 22.4429C73.6849 22.1125 73.2729 21.9473 72.7028 21.9473C71.9717 21.9473 71.4574 22.1748 71.16 22.63C70.8687 23.0913 70.7231 23.8831 70.7231 25.0053V29.41H68.6319V13.6149Z" fill="#5B6970"/>
<path d="M81.2351 22.2652V29.41H79.1438V22.2652H78.2516V20.3014H79.1438V16.9628H81.2351V20.3014H82.8616V22.2652H81.2351Z" fill="#5B6970"/>
<path d="M95.2882 15.7471V18.3282C94.0365 17.2745 92.7415 16.7477 91.4031 16.7477C89.9284 16.7477 88.6861 17.2808 87.6761 18.3469C86.6599 19.4067 86.1518 20.7035 86.1518 22.2372C86.1518 23.7522 86.6599 25.0303 87.6761 26.0714C88.6923 27.1126 89.9377 27.6332 91.4124 27.6332C92.1746 27.6332 92.8221 27.5085 93.3549 27.2591C93.6524 27.1344 93.9591 26.9661 94.2751 26.7541C94.5973 26.5421 94.935 26.2865 95.2882 25.9872V28.6151C94.0489 29.3196 92.7477 29.6718 91.3845 29.6718C89.3336 29.6718 87.5831 28.9518 86.1332 27.5116C84.6895 26.0589 83.9676 24.307 83.9676 22.2559C83.9676 20.4167 84.5718 18.777 85.78 17.3369C87.2671 15.5725 89.1911 14.6903 91.5518 14.6903C92.8407 14.6903 94.0861 15.0426 95.2882 15.7471Z" fill="#F5D7A5"/>
<path d="M97.2028 24.7902C97.2028 23.4747 97.6706 22.3556 98.6063 21.4329C99.5419 20.5102 100.682 20.0489 102.027 20.0489C103.377 20.0489 104.524 20.5133 105.466 21.4423C106.395 22.3712 106.86 23.5121 106.86 24.865C106.86 26.2304 106.392 27.3744 105.456 28.2971C104.514 29.2136 103.359 29.6718 101.989 29.6718C100.632 29.6718 99.4954 29.2043 98.5784 28.2691C97.6613 27.3464 97.2028 26.1868 97.2028 24.7902ZM99.3405 24.8276C99.3405 25.7379 99.5822 26.458 100.065 26.9879C100.561 27.5241 101.215 27.7921 102.027 27.7921C102.844 27.7921 103.498 27.5272 103.988 26.9972C104.477 26.4673 104.722 25.7597 104.722 24.8744C104.722 23.9891 104.477 23.2815 103.988 22.7515C103.492 22.2154 102.838 21.9473 102.027 21.9473C101.227 21.9473 100.58 22.2154 100.084 22.7515C99.5884 23.2877 99.3405 23.9797 99.3405 24.8276Z" fill="#5B6970"/>
<path d="M115.754 13.6149H117.855V29.41H115.754V28.4561C114.93 29.2666 113.998 29.6718 112.957 29.6718C111.718 29.6718 110.689 29.2167 109.871 28.3065C109.059 27.3775 108.653 26.2179 108.653 24.8276C108.653 23.4685 109.059 22.3338 109.871 21.4236C110.677 20.5071 111.69 20.0489 112.91 20.0489C113.97 20.0489 114.918 20.4853 115.754 21.3581V13.6149ZM110.791 24.8276C110.791 25.7005 111.024 26.4112 111.488 26.9598C111.965 27.5147 112.566 27.7921 113.291 27.7921C114.066 27.7921 114.692 27.5241 115.169 26.9879C115.646 26.433 115.885 25.7285 115.885 24.8744C115.885 24.0203 115.646 23.3158 115.169 22.7609C114.692 22.2185 114.072 21.9473 113.31 21.9473C112.591 21.9473 111.99 22.2216 111.507 22.7702C111.03 23.3251 110.791 24.0109 110.791 24.8276Z" fill="#5B6970"/>
<path d="M128.739 25.3513H122.251C122.307 26.0995 122.549 26.6949 122.976 27.1375C123.404 27.5739 123.952 27.7921 124.621 27.7921C125.142 27.7921 125.572 27.6674 125.913 27.4181C126.248 27.1687 126.629 26.7073 127.056 26.034L128.822 27.0253C128.55 27.4929 128.262 27.895 127.958 28.2317C127.654 28.5621 127.329 28.8364 126.982 29.0546C126.635 29.2666 126.26 29.4225 125.857 29.5222C125.455 29.622 125.018 29.6718 124.547 29.6718C123.196 29.6718 122.112 29.2354 121.294 28.3626C120.476 27.4835 120.067 26.3177 120.067 24.865C120.067 23.4249 120.464 22.259 121.257 21.3675C122.056 20.4884 123.116 20.0489 124.435 20.0489C125.768 20.0489 126.821 20.4759 127.595 21.3301C128.364 22.178 128.748 23.3532 128.748 24.8557L128.739 25.3513ZM126.592 23.6306C126.3 22.5084 125.597 21.9473 124.482 21.9473C124.228 21.9473 123.989 21.9878 123.766 22.0689C123.543 22.1437 123.339 22.2559 123.153 22.4055C122.973 22.5489 122.818 22.7235 122.688 22.9292C122.558 23.135 122.459 23.3688 122.391 23.6306H126.592Z" fill="#5B6970"/>
<path d="M131.034 20.3014H133.126V21.115C133.51 20.7097 133.851 20.4323 134.148 20.2827C134.452 20.1268 134.811 20.0489 135.226 20.0489C135.778 20.0489 136.354 20.2297 136.955 20.5913L135.998 22.5177C135.601 22.231 135.214 22.0876 134.836 22.0876C133.696 22.0876 133.126 22.9542 133.126 24.6874V29.41H131.034V20.3014Z" fill="#5B6970"/>
<path d="M143.414 21.8538L141.686 22.7796C141.413 22.2185 141.075 21.9379 140.673 21.9379C140.481 21.9379 140.316 22.0034 140.18 22.1343C140.044 22.259 139.976 22.4211 139.976 22.6206C139.976 22.9697 140.378 23.3158 141.184 23.6587C142.293 24.1387 143.04 24.5814 143.424 24.9866C143.808 25.3919 144 25.9374 144 26.6232C144 27.5022 143.678 28.2379 143.033 28.8302C142.408 29.3913 141.652 29.6718 140.766 29.6718C139.247 29.6718 138.172 28.9268 137.54 27.4368L139.325 26.6045C139.573 27.0409 139.762 27.3183 139.892 27.4368C140.146 27.6737 140.45 27.7921 140.803 27.7921C141.509 27.7921 141.862 27.4679 141.862 26.8196C141.862 26.4455 141.59 26.0964 141.044 25.7722C140.834 25.6662 140.623 25.5633 140.412 25.4636C140.202 25.3638 139.988 25.2609 139.771 25.1549C139.164 24.8557 138.736 24.5564 138.488 24.2572C138.172 23.8769 138.014 23.3875 138.014 22.7889C138.014 21.9972 138.284 21.3425 138.823 20.8251C139.374 20.3076 140.044 20.0489 140.831 20.0489C141.989 20.0489 142.851 20.6505 143.414 21.8538Z" fill="#5B6970"/>
</svg>
