<svg width="192" height="122" viewBox="0 0 192 122" fill="none" xmlns="http://www.w3.org/2000/svg">
<path d="M191.659 120.898C191.095 121.302 190.689 121.773 190.195 121.9C189.547 122.067 188.829 121.974 188.14 121.974C145.137 121.974 102.132 122.024 59.1292 121.923C50.9566 121.903 43.1438 119.806 35.6905 116.396C28.0016 112.878 21.3692 107.931 15.6929 101.692C12.9224 98.6465 10.5241 95.2953 8.4419 91.7506C4.6429 85.2824 2.15093 78.2706 0.860054 70.9152C0.03101 66.1925 -0.206839 61.3434 0.182062 56.5335C0.841199 48.3827 2.84777 40.5631 6.64147 33.2938C9.09023 28.6021 12.0333 24.244 15.5843 20.2553C18.3898 17.1047 21.4313 14.2766 24.7861 11.7785C31.0399 7.12131 37.9357 3.80261 45.4864 1.76208C50.6374 0.3694 55.8306 -0.00661469 61.1324 9.15527e-05C103.349 0.0480576 145.565 0.0269012 187.782 0.0269012H191.156C191.654 1.20758 191.032 1.67076 190.389 1.78578C189.432 1.95703 188.429 1.88071 187.446 1.88071C145.033 1.8838 102.619 1.79974 60.2062 1.94364C49.6978 1.97923 39.8648 4.91263 30.7629 10.4008C24.7816 14.0073 19.7302 18.6362 15.3111 23.8799C10.1086 30.052 6.59895 37.2733 4.41568 45.0748C3.81559 47.2196 3.52329 49.4541 3.1429 51.656C2.74596 53.9544 2.36763 56.2586 2.07225 58.5719C1.93577 59.6407 1.89552 60.7502 2.01568 61.8184C3.04436 70.9616 4.37744 80.0336 9.05353 88.1993C11.2916 92.1076 13.7356 95.8271 16.6721 99.3113C20.0721 103.346 23.993 106.637 28.2364 109.621C34.3014 113.886 40.9928 116.766 48.2398 118.327C52.1603 119.171 56.1158 119.598 60.1444 119.595C102.656 119.561 145.167 119.569 187.679 119.599C188.961 119.6 190.494 118.992 191.659 120.898Z" fill="#F1C480"/>
<path d="M192 110.657C191.315 111.657 191.114 112.291 190.742 112.416C190.118 112.626 189.385 112.531 188.698 112.531C144.897 112.532 101.096 112.549 57.2958 112.494C53.3022 112.489 49.4574 111.434 45.5976 110.291C40.9228 108.907 36.6651 106.783 32.6617 104.164C26.9611 100.434 22.2323 95.6646 18.4024 89.967C15.1009 85.0555 12.7019 79.7875 11.1097 74.1029C9.36352 67.8678 9.1878 61.48 9.71294 55.1382C10.1383 50.0018 11.5543 45.0145 13.6775 40.217C15.5164 36.0627 17.6965 32.1049 20.5434 28.666C24.8713 23.4383 29.848 18.8187 35.9026 15.5465C39.7011 13.493 43.6345 11.7207 47.8304 10.6989C51.4117 9.82721 55.0088 8.91424 58.7456 8.91371C101.956 8.91269 145.165 8.90443 188.375 8.91474C189.488 8.91474 190.814 8.49489 191.459 10.031C191.296 10.9383 190.672 11.2869 189.794 11.2993C188.909 11.3122 188.022 11.3076 187.137 11.3076C143.828 11.3174 100.52 11.323 57.2119 11.3411C53.1657 11.3432 49.3446 12.5269 45.5368 13.7329C40.9295 15.1916 36.6872 17.3997 32.7492 20.1758C26.3148 24.7123 21.278 30.4827 17.5163 37.4264C14.927 42.2059 13.2064 47.2892 12.1923 52.5664C11.5694 55.8087 11.2939 59.2172 11.5234 62.5044C12.0495 70.0471 13.7824 77.3488 17.3511 84.0971C19.1404 87.4803 21.4308 90.4941 23.8879 93.4543C28.5717 99.0983 34.4461 103.02 40.8908 106.179C44.3913 107.894 48.2016 108.723 52.0186 109.611C58.0536 111.017 64.1046 110.628 70.1566 110.634C109.331 110.678 148.505 110.657 187.679 110.657L192 110.657Z" fill="#F1C480"/>
<path d="M191.63 18.9874C191.11 19.4202 190.696 20.0185 190.174 20.1387C189.331 20.3332 188.415 20.2228 187.529 20.2228C145.698 20.2243 103.866 20.1939 62.0343 20.2512C54.1856 20.262 46.8681 22.2675 40.0861 26.4635C30.5539 32.3613 24.7801 40.8551 22.1192 51.5575C21.3499 54.6518 20.9532 57.9231 20.979 61.1087C21.0082 64.6879 21.5731 68.2562 22.5339 71.7771C23.8662 76.6597 26.0314 81.0668 29.0737 85.0457C32.1308 89.0448 35.7558 92.4372 40.0084 95.1958C45.0189 98.4453 50.6193 99.9417 56.3438 101.114C57.5759 101.366 58.8949 101.211 60.1738 101.211C102.596 101.216 145.018 101.217 187.441 101.218C188.228 101.218 189.033 101.122 189.797 101.256C190.403 101.362 190.958 101.753 191.489 101.996C191.333 103.217 190.725 103.584 189.84 103.61C189.249 103.627 188.659 103.619 188.068 103.619C145.646 103.618 103.223 103.603 60.8013 103.637C56.0406 103.642 51.5336 102.426 47.0885 101.033C41.208 99.1912 36.16 95.7445 31.7004 91.5866C28.9985 89.0669 26.8794 85.9582 24.8796 82.7973C21.8996 78.0885 20.3901 72.8453 19.1811 67.5155C18.6889 65.345 18.6744 63.0213 18.744 60.7771C18.8888 56.0925 19.4164 51.4301 21.0422 46.9962C23.2943 40.854 26.535 35.3488 31.2267 30.6699C36.2753 25.6351 42.129 22.0601 48.908 20.0412C52.1592 19.0731 55.4367 18.2958 58.9356 18.3019C102.145 18.3747 145.355 18.3447 188.565 18.3602C189.505 18.3602 190.533 18.0301 191.63 18.9874Z" fill="#F1C480"/>
<path d="M191.739 93.7029C191.083 93.9309 190.747 94.1228 190.398 94.1522C189.714 94.2105 189.022 94.1831 188.333 94.1831C145.717 94.1836 103.1 94.1635 60.4837 94.2012C53.0349 94.2079 46.6462 91.5458 40.7193 87.2321C35.1992 83.215 31.8286 77.6876 29.431 71.5258C28.4955 69.1211 28.1363 66.4152 27.947 63.8145C27.684 60.2023 27.5983 56.5123 28.5768 52.9867C29.625 49.2125 31.1155 45.5746 33.3165 42.2925C34.2406 40.9153 35.1699 39.5082 36.3087 38.3177C37.7904 36.7688 39.4009 35.3136 41.1019 34.0097C45.0363 30.9953 49.4825 28.9857 54.3256 27.9892C56.5096 27.5399 58.7738 27.28 61.0015 27.2779C103.421 27.2372 145.841 27.2444 188.26 27.2624C189.432 27.2629 190.897 26.7642 191.458 28.5004C190.768 29.3808 189.882 29.6625 188.86 29.6501C188.073 29.6403 187.285 29.6491 186.498 29.6491C144.866 29.6496 103.234 29.6779 61.6019 29.614C56.2965 29.6062 51.336 30.7349 46.6514 33.0776C42.4596 35.1734 39.1126 38.3641 36.2568 42.0325C32.8799 46.3699 31.1706 51.3774 30.2573 56.7949C28.8065 65.3986 31.5557 72.7999 36.2964 79.6601C40.2277 85.3479 45.9085 88.7207 52.3229 90.8913C53.957 91.4442 55.7579 91.6614 57.4919 91.7176C60.1052 91.8027 62.7253 91.8336 65.3448 91.8104C67.2224 91.7939 69.2437 92.5955 70.9463 92.1199C73.0067 91.5448 74.9075 92.4634 76.9421 91.943C78.499 91.5442 80.2973 92.0946 82.0257 91.9992C84.17 91.8806 86.3385 92.1122 88.4946 91.9043C88.785 91.8759 89.1053 91.7222 89.358 91.8011C92.4826 92.7724 95.7447 90.8061 98.8394 92.2582C100.739 91.0625 102.76 92.5202 104.804 91.9394C106.238 91.5319 107.975 92.0007 109.607 91.9373C111.938 91.8471 114.278 92.0322 116.636 91.8868C118.218 91.7888 119.834 92.0074 121.463 91.9399C123.798 91.8434 126.226 91.6572 128.475 91.9445C131.764 92.3644 135.062 90.8485 138.263 92.2422C140.179 91.2034 142.26 92.7069 144.203 91.8563C144.535 91.7109 145.07 91.6711 145.355 91.8429C146.518 92.5454 147.635 91.8342 148.731 91.8945C149.874 91.958 150.923 92.0559 152.113 91.9048C154.051 91.6588 156.104 91.8414 158.039 92.2071C159.315 92.4485 160.348 91.6763 161.739 92.0436C163.566 92.5258 165.658 91.9987 167.636 91.9017C167.73 91.8966 167.834 91.8089 167.915 91.8305C171.147 92.695 174.454 90.982 177.714 92.1478C178.426 92.4026 179.404 91.7846 180.251 91.8135C182.231 91.8806 184.221 92.3102 186.179 92.1813C187.629 92.0854 189.047 91.7604 190.412 92.3917C190.864 92.6012 191.172 93.1252 191.739 93.7029Z" fill="#F1C480"/>
</svg>
