<svg width="301" height="301" viewBox="0 0 301 301" fill="none" xmlns="http://www.w3.org/2000/svg">
<path d="M43.3308 152.688C96.5655 170.665 131.674 205.813 147.662 260.858C148.785 244.639 148.346 157.612 147.179 152.688H43.3308ZM295.26 5.38628C286.298 4.40417 278.013 5.81598 269.801 7.26382C264.282 8.23746 258.913 10.0811 253.497 11.6072C239.824 15.4627 227.448 22.128 215.718 29.9004C205.176 36.8843 196.182 45.7753 187.732 55.1479C184.94 58.2457 182.521 61.7065 180.16 65.1578C176.852 69.9912 173.539 74.8457 170.619 79.9162C165.271 89.2062 161.072 99.0657 158.364 109.424C156.472 116.656 155.77 124.195 154.032 131.476C152.782 136.712 153.254 141.797 153.387 146.916C161.72 147.835 290.316 147.588 295.26 146.654V5.38628ZM147.547 147.16C148.563 136.307 148.189 9.98997 147.174 5.42013C66.4001 3.09176 2.17847 77.4819 5.11949 147.16H147.547ZM153.365 295.61C163.214 296.61 290.528 296.272 295.109 295.286C296.008 285.123 295.218 276.863 292.934 265.979C289.754 250.829 283.842 236.723 276.12 223.472C271.284 215.171 265.637 207.322 258.943 200.214C255.2 196.241 251.198 192.6 247.261 188.874C243.756 185.556 240.125 182.306 236.22 179.485C222.15 169.324 206.553 162.194 190.032 157.058C186.865 156.073 183.519 155.627 180.232 155.08C176.528 154.464 172.694 154.392 169.103 153.402C163.883 151.964 158.774 152.655 153.365 152.734V295.61ZM151.91 116.152C159.533 85.7359 174.469 59.7623 197.575 39.1523C226.463 13.384 260.669 0.224877 299.634 0.297839C299.81 0.474569 299.979 0.608873 300.103 0.777137C300.22 0.936945 300.371 1.13274 300.371 1.31263C300.435 49.1461 300.488 96.9806 300.541 144.815C300.543 146.699 300.541 148.582 300.541 150.083C297.857 152.902 294.819 152.491 291.89 152.491C260.557 152.494 229.224 152.493 197.892 152.493H191.798C269.325 177.572 302.073 246.861 300.042 300.558C295.29 301.493 0.542114 300.558 0.542114 300.558C0.542114 300.558 0.555097 296.252 0.554652 294.622C0.544247 244.244 0.563956 193.866 0.542118 143.488C0.539599 136.751 1.69418 130.197 2.81007 123.576C3.85365 117.384 4.82941 111.257 6.84772 105.274C11.3583 91.9081 17.2364 79.2833 25.043 67.4649C29.0083 61.4609 33.8275 56.2307 38.0626 50.5326C43.2006 43.6185 49.9666 38.6243 56.2076 33.0638C61.1689 28.6431 67.1453 25.3306 72.7946 21.7205C86.5436 12.9321 101.723 7.62348 117.475 3.83677C124.193 2.22071 130.985 1.06613 137.966 1.14766C140.856 1.1804 143.744 0.243777 146.65 0.0924249C151.033 -0.135148 151.753 0.670236 151.903 5.12157C151.946 6.38945 151.91 7.66056 151.91 8.93051V116.152Z" fill="#F1C480"/>
</svg>
