<svg xmlns="http://www.w3.org/2000/svg" width="306" height="520" viewBox="0 0 306 520" fill="none">
<path d="M104.329 260C104.329 292.214 78.2141 318.329 46 318.329C13.7859 318.329 -12.3289 292.214 -12.3289 260C-12.3289 227.786 13.7859 201.671 46 201.671C78.2141 201.671 104.329 227.786 104.329 260ZM46 320.329C79.3187 320.329 106.329 293.319 106.329 260C106.329 226.681 79.3187 199.671 46 199.671C12.6813 199.671 -14.3289 226.681 -14.3289 260C-14.3289 293.319 12.6813 320.329 46 320.329ZM128.758 260C128.758 305.706 91.7062 342.758 46 342.758C0.293808 342.758 -36.7584 305.706 -36.7584 260C-36.7584 214.294 0.293808 177.242 46 177.242C91.7062 177.242 128.758 214.294 128.758 260ZM46 344.758C92.8108 344.758 130.758 306.811 130.758 260C130.758 213.189 92.8108 175.242 46 175.242C-0.810776 175.242 -38.7584 213.189 -38.7584 260C-38.7584 306.811 -0.810776 344.758 46 344.758ZM151.443 260C151.443 318.235 104.235 365.443 46 365.443C-12.2345 365.443 -59.443 318.235 -59.443 260C-59.443 201.765 -12.2345 154.557 46 154.557C104.235 154.557 151.443 201.765 151.443 260ZM46 367.443C105.339 367.443 153.443 319.339 153.443 260C153.443 200.661 105.339 152.557 46 152.557C-13.3391 152.557 -61.443 200.661 -61.443 260C-61.443 319.339 -13.3391 367.443 46 367.443ZM175.872 260C175.872 331.727 117.727 389.872 46 389.872C-25.7266 389.872 -83.8725 331.727 -83.8725 260C-83.8725 188.273 -25.7266 130.128 46 130.128C117.727 130.128 175.872 188.273 175.872 260ZM46 391.872C118.831 391.872 177.872 332.831 177.872 260C177.872 187.169 118.831 128.128 46 128.128C-26.8312 128.128 -85.8725 187.169 -85.8725 260C-85.8725 332.831 -26.8312 391.872 46 391.872ZM203.792 260C203.792 347.146 133.146 417.792 46 417.792C-41.1461 417.792 -111.792 347.146 -111.792 260C-111.792 172.854 -41.1461 102.208 46 102.208C133.146 102.208 203.792 172.854 203.792 260ZM46 419.792C134.251 419.792 205.792 348.251 205.792 260C205.792 171.749 134.251 100.208 46 100.208C-42.2507 100.208 -113.792 171.749 -113.792 260C-113.792 348.251 -42.2507 419.792 46 419.792ZM235.201 260C235.201 364.493 150.493 449.201 46 449.201C-58.493 449.201 -143.201 364.493 -143.201 260C-143.201 155.507 -58.493 70.7987 46 70.7987C150.493 70.7987 235.201 155.507 235.201 260ZM46 451.201C151.598 451.201 237.201 365.598 237.201 260C237.201 154.402 151.598 68.7987 46 68.7987C-59.5976 68.7987 -145.201 154.402 -145.201 260C-145.201 365.598 -59.5976 451.201 46 451.201ZM271.846 260C271.846 384.731 170.731 485.846 46 485.846C-78.7311 485.846 -179.846 384.731 -179.846 260C-179.846 135.269 -78.7311 34.1544 46 34.1544C170.731 34.1544 271.846 135.269 271.846 260ZM46 487.846C171.836 487.846 273.846 385.836 273.846 260C273.846 134.164 171.836 32.1544 46 32.1544C-79.8357 32.1544 -181.846 134.164 -181.846 260C-181.846 385.836 -79.8357 487.846 46 487.846ZM305 260C305 403.042 189.042 519 46 519C-97.0418 519 -213 403.042 -213 260C-213 116.958 -97.0418 1 46 1C189.042 1 305 116.958 305 260Z" stroke="#F1C480" stroke-width="2"/>
</svg>