<svg width="71" height="54" viewBox="0 0 71 54" fill="none" xmlns="http://www.w3.org/2000/svg">
<g id="Vector">
<path d="M70.9797 53.7346V52.0983C70.9797 45.8954 71.0418 39.6916 70.9487 33.4902C70.9121 31.0523 70.5494 28.6252 69.8301 26.2573C69.0425 23.6641 68.2068 21.1093 66.8797 18.7195C65.6061 16.4264 64.2455 14.2094 62.4334 12.2864C61.6187 11.4215 60.9015 10.4571 60.0295 9.65576C58.0985 7.88132 56.0781 6.19641 53.7508 4.94457C51.9641 3.98369 50.182 2.95829 48.2838 2.27122C45.9796 1.43733 43.66 0.637661 41.1668 0.315224C37.8178 -0.11784 34.4723 -0.0312653 31.1491 0.141613C27.7355 0.319466 24.4608 1.37782 21.3251 2.77178C19.3311 3.65851 17.4051 4.65983 15.6115 5.90771C12.248 8.24841 9.26983 10.9651 6.83104 14.2729C5.20667 16.4757 3.80905 18.8016 2.75838 21.302C1.92639 23.2823 1.11443 25.3316 0.752117 27.4277C0.395532 29.4901 -0.0254739 31.5689 0.00120644 33.7119C0.0776998 39.8642 0.0250122 46.0179 0.0281917 52.1715C0.028437 52.6534 0.0682885 53.1356 0.105694 53.9767C0.540009 53.4947 0.845389 53.2993 0.918735 53.0398C1.02313 52.6703 0.963018 52.2533 0.96314 51.8567C0.965554 45.8523 0.911536 39.8473 0.999691 33.8439C1.02743 31.9464 1.39793 30.0487 1.67603 28.1604C2.05792 25.569 3.02083 23.13 4.09792 20.7791C5.11891 18.5508 6.39367 16.4137 7.94043 14.4776C8.98841 13.166 9.99687 11.7837 11.2436 10.6772C13.0101 9.10959 14.7646 7.49263 16.8703 6.33605C17.6933 5.88387 18.4573 5.32679 19.2767 4.86791C21.9313 3.38169 24.8136 2.47241 27.745 1.72681C28.791 1.46066 29.9173 1.50977 30.9673 1.25505C32.8973 0.787254 34.8448 0.975506 36.7785 1.00428C40.2587 1.05563 43.645 1.63851 46.9304 2.87717C49.7309 3.93307 52.4122 5.17599 54.8764 6.86188C57.5086 8.66238 59.8582 10.7486 61.9094 13.2103C63.3412 14.9292 64.64 16.7215 65.7315 18.6453C67.1395 21.1271 68.1104 23.8054 68.8637 26.5551C69.557 29.0856 69.8038 31.6629 69.7898 34.2832C69.759 40.0889 69.7805 45.8947 69.7813 51.7007C69.7813 52.2915 69.6816 52.919 70.1098 53.4057C70.2535 53.5694 70.5669 53.587 70.9797 53.7346Z" fill="#F1C480"/>
<path d="M64.8217 53.936C65.1897 53.4747 65.4629 53.2638 65.5452 52.9957C65.6431 52.6765 65.5818 52.3081 65.582 51.9609C65.5828 46.3039 65.563 40.647 65.5898 34.9903C65.6048 31.817 65.0821 28.746 64.0651 25.7426C62.5853 21.3722 60.2628 17.5205 56.9258 14.2962C55.7847 13.1937 54.6068 12.1227 53.3818 11.1132C52.6635 10.5217 51.8451 10.0345 51.0272 9.57861C48.118 7.95722 45.0905 6.60367 41.8114 5.89751C40.7541 5.67006 39.6696 5.52745 38.5901 5.45354C37.4432 5.37516 36.2848 5.47091 35.1359 5.40964C31.809 5.23205 28.6327 5.89429 25.5075 6.9549C22.0341 8.13333 18.9467 9.94645 16.13 12.2661C13.3603 14.5468 11.1332 17.2385 9.32736 20.3277C7.94816 22.6873 6.8497 25.148 6.23934 27.7854C5.82177 29.5893 5.4285 31.4204 5.43143 33.301C5.4411 39.6526 5.43045 46.0041 5.43449 52.3558C5.43473 52.7799 5.49317 53.2038 5.55221 54C5.97334 53.4774 6.25964 53.2668 6.32931 53.0004C6.42689 52.6274 6.3676 52.2131 6.36769 51.8163C6.36944 46.0105 6.38016 40.2045 6.36476 34.399C6.35962 32.4708 6.79263 30.6063 7.08627 28.7195C7.4146 26.6099 8.21854 24.6366 9.14308 22.7597C10.1808 20.6529 11.3227 18.5595 13.0221 16.8453C13.8227 16.0377 14.4867 15.091 15.3201 14.3218C18.256 11.6118 21.5629 9.47443 25.3686 8.13503C26.8594 7.60994 28.3408 7.07022 29.924 6.87378C31.2449 6.70958 32.558 6.46254 33.8831 6.36061C36.0257 6.19567 38.1607 6.43102 40.289 6.66048C40.9737 6.73438 41.6579 6.87305 42.3236 7.05088C46.3916 8.13876 50.1256 9.92563 53.4816 12.4486C54.2635 13.0362 54.9507 13.7649 55.6052 14.4954C56.1627 15.118 56.8569 15.5659 57.4212 16.2061C60.2845 19.4544 62.1679 23.1868 63.458 27.2653C64.0411 29.1089 64.2399 30.9883 64.3903 32.9046C64.9081 39.485 64.5183 46.072 64.6545 52.6542C64.661 52.9783 64.7363 53.3013 64.8217 53.936Z" fill="#F1C480"/>
<path d="M11.2889 53.8159C11.4912 53.4094 11.7072 53.1388 11.7548 52.8417C11.8246 52.4059 11.7746 51.9512 11.7746 51.5048C11.7756 45.699 11.721 39.8925 11.8031 34.088C11.8392 31.5389 12.3299 29.0481 13.3516 26.6554C14.1707 24.7368 15.1316 22.9222 16.3886 21.2621C18.1994 18.871 20.38 16.8696 22.9299 15.2656C25.2569 13.8012 27.7845 12.817 30.4751 12.2733C33.054 11.7524 35.6294 11.5014 38.2906 11.9228C39.8118 12.1639 41.3117 12.371 42.7702 12.8757C45.5517 13.8384 48.0735 15.2006 50.4083 17.0222C54.5276 20.235 56.9488 24.4813 58.4902 29.3081C58.7992 30.2747 58.8533 31.3311 58.9496 32.353C59.5753 38.9763 59.0948 45.6166 59.2501 52.2476C59.2611 52.7199 59.0826 53.2671 59.7543 53.6257C59.891 53.4035 60.099 53.1929 60.1508 52.9496C60.2217 52.6165 60.1769 52.2588 60.1769 51.9115C60.1769 46.205 60.1583 40.4984 60.1864 34.7921C60.1954 33.0103 60.096 31.2512 59.5638 29.544C58.8783 27.3444 58.1831 25.1743 56.9931 23.1384C55.9837 21.4114 54.6929 19.9348 53.4822 18.3883C52.7927 17.5081 51.8115 16.8461 50.9375 16.1139C49.5668 14.9652 48.0372 14.0326 46.4447 13.2416C44.0948 12.0743 41.6013 11.2248 38.9991 10.8515C37.5751 10.6474 36.097 10.8486 34.648 10.7754C31.1766 10.6003 27.9442 11.607 24.8891 12.9985C21.7086 14.447 18.9282 16.5799 16.6392 19.2465C13.9975 22.3244 12.1929 25.852 11.2333 29.7771C10.979 30.8181 10.9547 31.9162 10.8483 32.9907C10.2311 39.2183 10.7259 45.4631 10.5711 51.698C10.5541 52.3838 10.483 53.0919 11.2889 53.8159Z" fill="#F1C480"/>
<path d="M54.6889 53.6299C54.7179 53.1733 54.7692 52.741 54.7695 52.3086C54.772 46.1591 54.7535 40.0096 54.7737 33.86C54.7797 32.0593 54.3597 30.3538 53.6995 28.7121C53.0959 27.2112 52.3941 25.7485 51.4305 24.4206C49.7524 22.1084 47.744 20.1695 45.238 18.7435C43.0306 17.4875 40.6678 16.5052 38.1747 16.245C35.1737 15.9315 32.1364 15.9876 29.2168 17.1516C27.5069 17.8335 25.8325 18.5047 24.3259 19.5913C22.667 20.7878 21.1631 22.1245 19.9514 23.7603C18.5324 25.6759 17.4286 27.7633 16.7907 30.0626C16.5438 30.9528 16.3646 31.8738 16.2727 32.7922C15.6163 39.3617 16.1423 45.9505 15.974 52.5287C15.9623 52.9888 15.9758 53.4305 16.5256 53.6473C16.9845 53.5813 17.1705 53.2765 17.178 52.831C17.184 52.4838 17.1808 52.1365 17.181 51.7895C17.1825 45.7888 17.1547 39.7876 17.2025 33.7871C17.2185 31.7649 17.7779 29.8421 18.5787 27.9645C19.7341 25.2564 21.5377 23.0541 23.7403 21.1611C25.1633 19.9378 26.8154 19.0508 28.5406 18.271C31.5559 16.9076 34.7522 16.8069 37.9076 17.1345C40.7096 17.4252 43.4087 18.3534 45.7004 20.1355C46.518 20.7717 47.3673 21.3689 48.1729 22.0196C49.666 23.2258 50.7585 24.805 51.6065 26.4505C52.5616 28.3038 53.33 30.2561 53.6071 32.4118C53.8807 34.5404 53.8069 36.6484 53.8279 38.7644C53.8715 43.1281 53.8407 47.4925 53.8422 51.8567C53.8422 52.2533 53.8202 52.6542 53.8707 53.0451C53.9203 53.4263 54.1694 53.6421 54.6889 53.6299Z" fill="#F1C480"/>
<path d="M49.0394 53.686C49.5423 53.2427 49.6455 52.7457 49.6447 52.1814C49.6357 46.6269 49.7273 41.0704 49.6062 35.5184C49.5328 32.1565 48.4035 29.1163 46.141 26.4847C43.9577 23.9455 41.2894 22.4105 38.0022 21.7805C33.1664 20.8538 29.1003 22.3254 25.5876 25.5603C23.6859 27.3114 22.4737 29.5013 21.8383 31.9827C21.597 32.9247 21.4095 33.9099 21.4027 34.8767C21.3624 40.6793 21.3802 46.4818 21.3844 52.2843C21.3849 52.805 21.2395 53.4065 21.997 53.652C22.6021 53.2284 22.5906 52.5956 22.5901 51.9582C22.5866 48.0898 22.5884 44.2212 22.5884 40.3529C22.5884 38.5179 22.5914 36.6829 22.5889 34.848C22.5829 30.6807 24.5319 27.5441 27.785 25.0677C29.5623 23.7146 31.5944 23.1156 33.7622 22.6831C37.0143 22.0345 39.8779 23.0348 42.5311 24.6115C44.7217 25.9132 46.2447 27.9012 47.3337 30.2652C48.1686 32.0782 48.451 33.9005 48.4428 35.8418C48.42 41.2475 48.4303 46.6535 48.4423 52.0591C48.4435 52.6192 48.2215 53.281 49.0394 53.686Z" fill="#F1C480"/>
<path d="M43.7143 53.7336C43.9026 53.4625 44.1357 53.2554 44.1975 53.0064C44.2791 52.6782 44.2308 52.3171 44.2308 51.9701C44.2318 46.5636 44.2581 41.157 44.2208 35.7508C44.2008 32.8138 43.0051 30.2843 40.6249 28.6156C37.9384 26.7322 34.9284 26.1632 31.7837 27.7923C29.8617 28.7879 28.314 30.1467 27.4726 32.1295C27.0795 33.0559 26.8284 34.1138 26.8179 35.1151C26.7568 40.8682 26.7856 46.6222 26.7886 52.3758C26.7888 52.8092 26.6794 53.2909 27.286 53.6156C27.424 53.4055 27.6476 53.2026 27.6916 52.9669C27.7635 52.5827 27.7217 52.1769 27.7217 51.7803C27.7224 46.6716 27.7287 41.5625 27.7171 36.4537C27.7144 35.3118 27.9582 34.2217 28.282 33.1392C29.2774 29.8076 33.05 27.5324 36.6296 28.1443C39.8944 28.7024 42.0161 30.7276 42.9362 33.9042C43.0701 34.3665 43.0241 34.8861 43.0246 35.3795C43.0299 40.9347 43.0231 46.49 43.0356 52.0452C43.0369 52.607 42.8095 53.2695 43.7143 53.7336Z" fill="#F1C480"/>
</g>
</svg>
