<svg width="368" height="202" viewBox="0 0 368 202" fill="none" xmlns="http://www.w3.org/2000/svg">
<path d="M243.531 48.4271C240.378 46.6727 238.483 44.5701 239.678 41.1182C240.362 39.1435 242.124 38.5748 244.109 38.7568C246.183 38.9458 247.513 40.0974 247.693 42.1546C247.808 43.4597 247.898 45.1287 247.214 46.0499C246.368 47.1873 244.706 47.7176 243.531 48.4271Z" fill="#F1C480"/>
<path d="M323.788 48.5095C319.355 44.7833 318.479 42.2185 320.612 39.951C322.136 38.3303 325.231 38.2933 326.807 39.8771C328.994 42.075 328.161 44.6654 323.788 48.5095Z" fill="#F1C480"/>
<path d="M44.4068 9.79564C39.9844 6.10816 39.0944 3.51748 41.2189 1.24684C42.7448 -0.384481 45.83 -0.421271 47.4109 1.17325C49.6069 3.38838 48.7725 5.99431 44.4068 9.79564Z" fill="#F1C480"/>
<path d="M168.592 120.529C168.494 122.751 166.433 124.572 164.014 124.573C161.456 124.575 159.109 122.181 159.402 119.869C159.696 117.549 161.685 116.056 164.33 116.173C166.663 116.277 168.689 118.345 168.592 120.529Z" fill="#F1C480"/>
<path d="M120.296 4.38518C120.445 1.84518 121.855 0.105571 123.794 0.0701566C125.935 0.0312879 128.783 2.89408 128.694 4.99674C128.603 7.16535 125.617 9.83725 123.525 9.62343C121.38 9.40476 120.123 7.36598 120.296 4.38518Z" fill="#F1C480"/>
<path d="M159.127 4.22755C160.623 1.81875 161.935 -0.398375 164.974 0.222144C166.846 0.605329 168.666 3.72567 168.102 5.54094C167.5 7.47701 166.662 9.59772 164.192 9.60536C160.596 9.61716 160.502 6.3192 159.127 4.22755Z" fill="#F1C480"/>
<path d="M207.725 4.91221C207.702 7.82924 206.128 9.81034 203.956 9.65554C202.07 9.52019 199.508 7.03224 199.326 5.15934C199.125 3.08652 201.854 0.145982 204.049 0.0689275C206.189 -0.00673416 207.746 2.04456 207.725 4.91221Z" fill="#F1C480"/>
<path d="M247.816 5.02586C247.754 7.98514 246.153 9.88928 243.935 9.64076C241.996 9.42349 239.509 6.90779 239.395 5.04738C239.269 2.96007 242.087 0.0652642 244.25 0.060402C246.377 0.0555399 247.875 2.14224 247.816 5.02586Z" fill="#F1C480"/>
<path d="M283.88 9.75949C279.301 6.23722 278.349 3.78894 280.386 1.38007C281.812 -0.308872 284.901 -0.477554 286.58 1.04139C288.888 3.13009 288.127 5.83807 283.88 9.75949Z" fill="#F1C480"/>
<path d="M44.5832 48.4696C39.9928 44.9125 39.0457 42.4928 41.0753 40.093C42.4936 38.414 45.5948 38.2349 47.2721 39.7348C49.5846 41.8033 48.8341 44.4945 44.5832 48.4696Z" fill="#F1C480"/>
<path d="M362.811 0.109087C364.904 -0.119291 367.885 2.52969 367.993 4.71564C368.082 6.48519 365.762 9.18476 363.792 9.60406C361.607 10.0686 359.786 8.22681 359.595 5.35638C359.396 2.38808 360.649 0.345114 362.811 0.109087Z" fill="#F1C480"/>
<path d="M4.45812 48.471C-0.0746702 44.8783 -1.01409 42.416 1.02011 40.0588C2.45525 38.3955 5.55167 38.2519 7.21314 39.7718C9.51673 41.8786 8.75146 44.5414 4.45812 48.471Z" fill="#F1C480"/>
<path d="M84.9062 48.2861C81.7055 47.6463 79.7718 46.2119 80.1983 42.6961C80.4899 40.2962 81.6458 38.9997 84.1057 38.7367C86.4759 38.4836 87.319 40.0475 88.0983 41.7591C89.7091 45.3048 86.9679 46.6241 84.9062 48.2861Z" fill="#F1C480"/>
<path d="M283.462 48.4823C279.176 44.5385 278.41 41.8857 280.698 39.7759C282.354 38.2491 285.447 38.3885 286.89 40.0546C288.944 42.4274 288.017 44.8755 283.462 48.4823Z" fill="#F1C480"/>
<path d="M4.07966 9.84829C1.89836 7.9636 -1.11068 6.7585 0.57847 3.2883C1.45827 1.48205 3.02099 -0.408198 5.32813 0.249882C6.54865 0.598363 7.56905 2.14985 8.33968 3.37299C8.75217 4.0276 8.54233 5.15079 8.42438 6.03725C8.3403 6.66964 8.10857 7.48607 7.65045 7.82406C6.59291 8.6058 5.35788 9.14648 4.07966 9.84829Z" fill="#F1C480"/>
<path d="M84.9431 9.54302C81.9487 9.00503 79.8458 7.81381 80.1843 4.25059C80.3748 2.24381 81.0814 0.739438 83.0933 0.177847C84.828 -0.306689 87.6816 1.50443 88.3513 3.64388C89.3253 6.7545 86.9452 8.06304 84.9431 9.54302Z" fill="#F1C480"/>
<path d="M324.346 9.68392C320.46 8.72657 318.958 6.88908 319.536 3.5952C319.89 1.57939 321.083 -0.224863 323.004 0.226349C324.733 0.633134 326.773 2.1159 327.544 3.68058C329.01 6.66286 326.053 7.92271 324.346 9.68392Z" fill="#F1C480"/>
<path d="M202.994 48.3233C200.91 46.6243 198.2 45.1813 199.757 42.2613C200.574 40.7301 202.636 39.3112 204.362 38.963C206.32 38.5677 207.395 40.4429 207.711 42.4461C208.241 45.7984 206.586 47.5058 202.994 48.3233Z" fill="#F1C480"/>
<path d="M159.245 198.122C160.154 195.145 161.46 192.557 164.277 193.071C166.071 193.398 167.513 195.654 169.042 196.985C164.657 203.438 164.108 203.479 159.245 198.122Z" fill="#F1C480"/>
<path d="M125.152 48.3913C121.235 47.4245 119.769 45.5636 120.325 42.2895C120.669 40.2664 121.878 38.4837 123.797 38.9414C125.52 39.3523 127.545 40.8365 128.316 42.4004C129.789 45.3859 126.803 46.6269 125.152 48.3913Z" fill="#F1C480"/>
<path d="M168.635 159.51C167.166 162.091 165.191 164.231 162.129 162.973C160.856 162.45 159.532 160.186 159.586 158.763C159.653 156.946 160.671 154.979 163.371 154.805C166.953 154.574 168.125 156.578 168.635 159.51Z" fill="#F1C480"/>
<path d="M88.6384 81.825C88.5559 84.4282 86.9195 85.938 84.2691 85.8555C81.6244 85.7745 80.1385 84.178 80.2239 81.5095C80.3092 78.8694 81.8875 77.4193 84.5947 77.4875C87.2678 77.5544 88.7237 79.1153 88.6384 81.825Z" fill="#F1C480"/>
<path d="M362.846 192.882C364.848 192.713 367.65 194.793 367.939 196.661C368.256 198.721 365.738 201.699 363.477 201.94C361.506 202.149 359.884 200.518 359.601 198.046C359.285 195.305 360.696 193.064 362.846 192.882Z" fill="#F1C480"/>
<path d="M4.34622 193.552C6.96308 193.575 8.52978 195.2 8.4785 197.834C8.42772 200.465 6.82891 202.014 4.19712 201.978C1.55258 201.944 0.029269 200.367 0.0598105 197.698C0.0903521 195.079 1.69281 193.529 4.34622 193.552Z" fill="#F1C480"/>
<path d="M44.4367 193.551C47.0449 193.595 48.6121 195.234 48.5592 197.858C48.5071 200.484 46.9 202.024 44.2562 201.984C41.6152 201.941 40.1038 200.362 40.1364 197.676C40.1684 195.052 41.7804 193.505 44.4367 193.551Z" fill="#F1C480"/>
<path d="M323.817 154.865C326.435 154.911 327.986 156.527 327.942 159.167C327.899 161.794 326.307 163.317 323.642 163.281C320.992 163.246 319.482 161.675 319.514 158.987C319.547 156.371 321.164 154.821 323.817 154.865Z" fill="#F1C480"/>
<path d="M4.1747 77.4875C6.84841 77.4478 8.42839 78.9476 8.48471 81.5777C8.54164 84.2405 7.02952 85.8058 4.36215 85.8484C1.69409 85.8897 0.099429 84.3742 0.0543987 81.7569C0.00857218 79.0699 1.49829 77.5273 4.1747 77.4875Z" fill="#F1C480"/>
<path d="M368 43.5861C368.018 45.4229 365.422 47.8355 363.309 47.9421C361.525 48.0302 359.688 46.02 359.594 43.8761C359.466 40.9303 360.812 38.913 362.982 38.7978C365.146 38.6828 367.977 41.3839 368 43.5861Z" fill="#F1C480"/>
<path d="M48.5654 81.5307C48.6329 84.2049 47.136 85.7901 44.4845 85.8497C41.8109 85.9095 40.1961 84.4053 40.1391 81.8009C40.0801 79.1095 41.5512 77.5543 44.2193 77.4874C46.8923 77.4192 48.4989 78.9148 48.5654 81.5307Z" fill="#F1C480"/>
<path d="M283.982 193.55C286.53 193.724 288.039 195.494 287.861 198.101C287.686 200.659 285.93 202.16 283.318 201.986C280.79 201.817 279.27 200.034 279.431 197.43C279.587 194.912 281.391 193.374 283.982 193.55Z" fill="#F1C480"/>
<path d="M323.793 193.549C326.402 193.597 327.976 195.225 327.942 197.842C327.909 200.477 326.316 202.018 323.66 201.987C321.033 201.957 319.499 200.366 319.514 197.692C319.531 195.063 321.144 193.502 323.793 193.549Z" fill="#F1C480"/>
<path d="M283.963 154.865C286.511 155.021 288.031 156.784 287.866 159.389C287.706 161.944 285.964 163.444 283.342 163.284C280.807 163.129 279.278 161.364 279.432 158.765C279.581 156.234 281.357 154.706 283.963 154.865Z" fill="#F1C480"/>
<path d="M8.48688 120.488C8.42586 123.096 6.81785 124.606 4.15673 124.551C1.48389 124.495 0.00796234 122.949 0.0607275 120.26C0.112711 117.629 1.69825 116.137 4.38445 116.191C7.04488 116.245 8.54875 117.819 8.48688 120.488Z" fill="#F1C480"/>
<path d="M247.793 159.143C247.744 161.776 246.148 163.316 243.507 163.279C240.856 163.243 239.329 161.667 239.364 159.005C239.398 156.391 241.018 154.825 243.654 154.858C246.271 154.892 247.841 156.517 247.793 159.143Z" fill="#F1C480"/>
<path d="M159.195 42.7246C160.802 40.4144 162.149 37.9408 165.284 39.0923C167.421 39.8785 168.55 42.075 168.043 44.0426C167.667 45.5012 165.889 47.3963 164.488 47.6337C160.953 48.2308 160.205 45.1572 159.195 42.7246Z" fill="#F1C480"/>
<path d="M88.6386 158.955C88.6997 161.631 87.1968 163.219 84.5507 163.277C81.9004 163.337 80.3008 161.827 80.2213 159.193C80.1416 156.562 81.6857 154.925 84.3048 154.864C86.9453 154.802 88.5803 156.345 88.6386 158.955Z" fill="#F1C480"/>
<path d="M48.5621 158.951C48.6185 161.629 47.114 163.22 44.4729 163.277C41.8224 163.334 40.2088 161.817 40.1365 159.198C40.0637 156.561 41.6015 154.932 44.225 154.868C46.8634 154.803 48.5079 156.351 48.5621 158.951Z" fill="#F1C480"/>
<path d="M8.48339 158.951C8.53685 161.631 7.03394 163.22 4.39346 163.276C1.72071 163.333 0.125807 161.833 0.0598474 159.202C-0.0061127 156.558 1.52346 154.937 4.14561 154.871C6.79432 154.804 8.43202 156.345 8.48339 158.951Z" fill="#F1C480"/>
<path d="M327.945 120.102C328.083 122.776 326.628 124.42 324.005 124.551C321.349 124.683 319.657 123.21 319.514 120.645C319.371 118.022 320.871 116.329 323.461 116.19C326.112 116.048 327.811 117.531 327.945 120.102Z" fill="#F1C480"/>
<path d="M287.87 120.503C287.807 123.105 286.19 124.612 283.524 124.552C280.855 124.492 279.375 122.933 279.435 120.244C279.493 117.637 281.11 116.127 283.78 116.188C286.435 116.249 287.933 117.83 287.87 120.503Z" fill="#F1C480"/>
<path d="M243.476 116.19C246.146 116.148 247.747 117.664 247.791 120.274C247.835 122.955 246.344 124.505 243.672 124.552C240.993 124.599 239.411 123.1 239.362 120.472C239.314 117.793 240.816 116.231 243.476 116.19Z" fill="#F1C480"/>
<path d="M287.87 81.7796C287.817 84.3784 286.196 85.9039 283.537 85.8513C280.874 85.7986 279.374 84.2263 279.438 81.5534C279.501 78.9305 281.096 77.4291 283.766 77.4832C286.442 77.5359 287.924 79.0883 287.87 81.7796Z" fill="#F1C480"/>
<path d="M84.5378 116.193C87.2037 116.239 88.6897 117.793 88.6385 120.48C88.5886 123.103 86.9976 124.603 84.3217 124.552C81.6514 124.502 80.1699 122.954 80.2168 120.263C80.2623 117.635 81.8433 116.146 84.5378 116.193Z" fill="#F1C480"/>
<path d="M48.5669 120.252C48.628 122.94 47.1436 124.498 44.4735 124.552C41.7957 124.605 40.1953 123.109 40.1371 120.499C40.0766 117.825 41.5715 116.249 44.2279 116.19C46.8924 116.13 48.5078 117.643 48.5669 120.252Z" fill="#F1C480"/>
<path d="M360.305 85.4489C359.449 79.158 360.238 77.4918 363.801 77.4945C365.874 77.496 367.774 79.5575 367.966 82.0169C368.183 84.8105 366.102 85.8043 360.305 85.4489Z" fill="#F1C480"/>
<path d="M327.943 81.3217C328.121 83.9604 326.651 85.682 324.076 85.8526C321.431 86.0261 319.679 84.5532 319.513 82.017C319.342 79.4053 320.832 77.6638 323.39 77.4847C326.034 77.2998 327.771 78.7641 327.943 81.3217Z" fill="#F1C480"/>
<path d="M247.797 82.0126C247.641 84.5433 245.886 86.0204 243.239 85.8527C240.665 85.6878 239.198 83.9746 239.365 81.3261C239.528 78.7641 241.255 77.3041 243.91 77.4861C246.461 77.661 247.959 79.4053 247.797 82.0126Z" fill="#F1C480"/>
<path d="M207.2 85.2469C201.463 85.8796 199.279 84.9925 199.306 82.2742C199.332 79.6555 201.634 77.2713 203.927 77.4888C207.155 77.7945 207.724 79.0541 207.2 85.2469Z" fill="#F1C480"/>
<path d="M159.245 81.3545C163.849 76.198 164.173 76.1966 168.661 81.2522C167.995 83.3192 167.806 85.6166 164.695 85.9096C161.487 86.2094 160.166 84.5148 159.245 81.3545Z" fill="#F1C480"/>
<path d="M360.367 155.097C361.941 155.007 363.094 154.74 364.171 154.922C366.348 155.287 368.345 157.872 367.677 159.697C367.105 161.254 366.608 163.193 364.206 163.296C361.638 163.405 359.84 162.183 359.659 159.498C359.562 158.054 360.11 156.566 360.367 155.097Z" fill="#F1C480"/>
<path d="M128.59 198.096C127.356 200.234 126.016 202.399 122.975 201.806C121.078 201.437 119.093 198.233 119.877 196.525C120.433 195.313 121.799 194.02 123.053 193.677C125.753 192.939 126.37 193.622 128.59 198.096Z" fill="#F1C480"/>
<path d="M207.237 194.247C207.666 199.847 206.672 202.073 204.012 201.961C201.882 201.872 199.226 199.055 199.312 196.98C199.42 194.325 201.668 193.485 207.237 194.247Z" fill="#F1C480"/>
<path d="M120.805 85.2441C120.261 79.0669 121.129 77.4178 124.63 77.4945C126.656 77.5386 128.738 79.9881 128.519 82.0723C128.226 84.8843 126.076 85.8369 120.805 85.2441Z" fill="#F1C480"/>
<path d="M120.641 155.188C122.415 155.041 123.532 154.775 124.605 154.899C126.716 155.144 128.974 157.674 128.435 159.444C127.949 161.044 127.46 162.97 125.179 163.277C122.713 163.611 120.79 162.381 120.38 159.761C120.181 158.489 120.508 157.135 120.641 155.188Z" fill="#F1C480"/>
<path d="M207.699 120.25C207.757 122.983 206.243 124.539 203.519 124.552C201.142 124.562 199.296 123.007 199.306 120.999C199.316 118.793 201.376 116.301 203.266 116.205C206.014 116.068 207.644 117.553 207.699 120.25Z" fill="#F1C480"/>
<path d="M83.6506 201.953C81.6999 201.879 80.1998 200.002 80.2225 197.665C80.2496 195.023 81.845 193.495 84.5181 193.552C86.7916 193.6 88.6598 195.258 88.6172 197.189C88.5689 199.345 85.7679 202.032 83.6506 201.953Z" fill="#F1C480"/>
<path d="M243.288 193.55C245.919 193.394 247.662 194.91 247.794 197.47C247.914 199.8 246.512 201.727 244.549 201.927C242.459 202.14 239.602 199.615 239.405 197.379C239.232 195.407 240.975 193.688 243.288 193.55Z" fill="#F1C480"/>
<path d="M199.479 159.257C199.367 157.077 201.514 154.818 203.648 154.869C206.004 154.928 207.477 156.265 207.701 158.551C207.955 161.153 206.505 163.007 204 163.286C201.899 163.519 199.593 161.463 199.479 159.257Z" fill="#F1C480"/>
<path d="M128.52 120.189C128.625 122.38 126.501 124.593 124.363 124.551C121.941 124.502 120.588 123.278 120.313 120.891C120.013 118.278 121.452 116.464 123.999 116.186C126.123 115.954 128.415 117.984 128.52 120.189Z" fill="#F1C480"/>
<path d="M363.626 124.546C360.976 124.467 359.517 122.886 359.601 120.188C359.683 117.542 361.287 116.089 363.999 116.203C365.743 116.275 367.737 118.372 367.813 120.215C367.906 122.42 365.787 124.612 363.626 124.546Z" fill="#F1C480"/>
</svg>
