<svg width="224" height="269" viewBox="0 0 224 269" fill="none" xmlns="http://www.w3.org/2000/svg">
<path d="M7.5 0L76 40L112 32L147.5 40L216 0L224 85.5L198.5 169.5L167 184L141.5 246L112 269L82.5 246L56.5 184L25 169.5L0 85.5L7.5 0Z" fill="#372C19"/>
<path d="M224 85.5L216 0L147.5 40L112 32V238.5L99 247L112 269L141.5 246L167 184L198.5 169.5L224 85.5Z" fill="#F5D7A5"/>
<path d="M128 216H112V228H122.927L128 216Z" fill="#896756"/>
<path d="M126 247L112 238.5L99 247H126Z" fill="#896756"/>
<path d="M141.5 246L111.96 269L126 247L141.5 246Z" fill="#896756"/>
<path d="M147.5 40L224 85.5L202 31L216 0L147.5 40Z" fill="#BAA074"/>
<path d="M147.5 40L112 32V117.5L143.5 128L147.5 40Z" fill="#BAA074"/>
<path d="M133 147H112V216H126.341L133 147Z" fill="#BAA074"/>
<path d="M126 247L111.96 269L99 247H126Z" fill="#BAA074"/>
<path d="M152.5 167.5L167 184L198.5 169.5L180 132.5L155.5 143L138 136L133 147L152.5 167.5Z" fill="#BAA074"/>
<path d="M154.826 128L171 131V134L154.826 140L140 134V131L154.826 128Z" fill="#BAA074"/>
<path d="M173.979 130.179L192.044 123.368L192.81 125.216L172 134L173.979 130.179Z" fill="#BAA074"/>
</svg>
