<svg width="36" height="36" viewBox="0 0 36 36" fill="none" xmlns="http://www.w3.org/2000/svg">
<path d="M27.1666 8.7688H27.1833M9.66658 1.2688H26.3333C30.9356 1.2688 34.6666 4.99976 34.6666 9.60213V26.2688C34.6666 30.8712 30.9356 34.6021 26.3333 34.6021H9.66658C5.06421 34.6021 1.33325 30.8712 1.33325 26.2688V9.60213C1.33325 4.99976 5.06421 1.2688 9.66658 1.2688ZM24.6666 16.8855C24.8723 18.2725 24.6353 19.6892 23.9895 20.9338C23.3437 22.1785 22.3218 23.1878 21.0693 23.8183C19.8168 24.4487 18.3973 24.6681 17.0129 24.4454C15.6285 24.2226 14.3495 23.5689 13.358 22.5774C12.3664 21.5859 11.7128 20.3069 11.49 18.9225C11.2673 17.5381 11.4867 16.1186 12.1171 14.8661C12.7476 13.6136 13.7569 12.5917 15.0016 11.9459C16.2462 11.3 17.6628 11.0631 19.0499 11.2688C20.4648 11.4786 21.7747 12.1379 22.7861 13.1493C23.7975 14.1607 24.4568 15.4706 24.6666 16.8855Z" stroke="#D1C2A0" stroke-width="2" stroke-linecap="round" stroke-linejoin="round"/>
</svg>
