<svg width="40" height="41" viewBox="0 0 40 41" fill="none" xmlns="http://www.w3.org/2000/svg">
<path d="M26.6666 14.2688C29.3187 14.2688 31.8623 15.3224 33.7377 17.1977C35.613 19.0731 36.6666 21.6166 36.6666 24.2688V35.9355H29.9999V24.2688C29.9999 23.3847 29.6487 22.5369 29.0236 21.9118C28.3985 21.2867 27.5506 20.9355 26.6666 20.9355C25.7825 20.9355 24.9347 21.2867 24.3096 21.9118C23.6844 22.5369 23.3333 23.3847 23.3333 24.2688V35.9355H16.6666V24.2688C16.6666 21.6166 17.7202 19.0731 19.5955 17.1977C21.4709 15.3224 24.0144 14.2688 26.6666 14.2688Z" stroke="#D1C2A0" stroke-width="2" stroke-linecap="round" stroke-linejoin="round"/>
<path d="M9.99992 15.9355H3.33325V35.9355H9.99992V15.9355Z" stroke="#D1C2A0" stroke-width="2" stroke-linecap="round" stroke-linejoin="round"/>
<path d="M6.66659 10.9355C8.50753 10.9355 9.99992 9.44308 9.99992 7.60213C9.99992 5.76118 8.50753 4.2688 6.66659 4.2688C4.82564 4.2688 3.33325 5.76118 3.33325 7.60213C3.33325 9.44308 4.82564 10.9355 6.66659 10.9355Z" stroke="#D1C2A0" stroke-width="2" stroke-linecap="round" stroke-linejoin="round"/>
</svg>
