<svg width="1247" height="365" viewBox="0 0 1247 365" fill="none" xmlns="http://www.w3.org/2000/svg">
<path d="M55.5 48L124 88L160 80L195.5 88L264 48L272 133.5L246.5 217.5L215 232L189.5 294L160 317L130.5 294L104.5 232L73 217.5L48 133.5L55.5 48Z" fill="#372C19"/>
<path d="M272 133.5L264 48L195.5 88L160 80V286.5L147 295L160 317L189.5 294L215 232L246.5 217.5L272 133.5Z" fill="#F5D7A5"/>
<path d="M176 264H160V276H170.927L176 264Z" fill="#896756"/>
<path d="M174 295L160 286.5L147 295H174Z" fill="#896756"/>
<path d="M189.5 294L159.96 317L174 295L189.5 294Z" fill="#896756"/>
<path d="M195.5 88L272 133.5L250 79L264 48L195.5 88Z" fill="#BAA074"/>
<path d="M195.5 88L160 80V165.5L191.5 176L195.5 88Z" fill="#BAA074"/>
<path d="M181 195H160V264H174.341L181 195Z" fill="#BAA074"/>
<path d="M174 295L159.96 317L147 295H174Z" fill="#BAA074"/>
<path d="M200.5 215.5L215 232L246.5 217.5L228 180.5L203.5 191L186 184L181 195L200.5 215.5Z" fill="#BAA074"/>
<path d="M202.826 176L219 179V182L202.826 188L188 182V179L202.826 176Z" fill="#BAA074"/>
<path d="M221.979 178.179L240.044 171.368L240.81 173.216L220 182L221.979 178.179Z" fill="#BAA074"/>
<path d="M331.163 168.931H348.93V176.006C355.114 169.874 362.084 166.808 369.841 166.808C378.75 166.808 385.694 169.612 390.673 175.22C394.971 179.989 397.12 187.772 397.12 198.568V245.5H379.353V202.734C379.353 195.188 378.305 189.973 376.208 187.09C374.165 184.155 370.444 182.688 365.045 182.688C359.176 182.688 355.009 184.627 352.546 188.505C350.135 192.331 348.93 199.013 348.93 208.552V245.5H331.163V168.931ZM437.212 168.931V245.5H419.524V168.931H437.212ZM416.852 137.092C416.852 134 417.978 131.327 420.232 129.074C422.486 126.82 425.185 125.693 428.329 125.693C431.526 125.693 434.251 126.82 436.505 129.074C438.758 131.275 439.885 133.974 439.885 137.171C439.885 140.368 438.758 143.093 436.505 145.347C434.304 147.6 431.605 148.727 428.408 148.727C425.211 148.727 422.486 147.6 420.232 145.347C417.978 143.093 416.852 140.342 416.852 137.092ZM533.671 243.692C533.671 247.308 533.54 250.479 533.278 253.204C533.068 255.982 532.754 258.419 532.334 260.515C531.077 266.28 528.613 271.233 524.945 275.373C518.027 283.339 508.515 287.322 496.408 287.322C486.188 287.322 477.777 284.571 471.173 279.068C464.36 273.408 460.43 265.573 459.381 255.562H477.148C477.829 259.336 478.956 262.245 480.528 264.289C484.197 269.058 489.543 271.442 496.565 271.442C509.51 271.442 515.983 263.502 515.983 247.623V236.931C508.96 244.111 500.863 247.701 491.691 247.701C481.262 247.701 472.719 243.928 466.063 236.381C459.355 228.729 456.001 219.165 456.001 207.687C456.001 196.524 459.119 187.038 465.356 179.229C472.064 170.948 480.921 166.808 491.927 166.808C501.57 166.808 509.589 170.398 515.983 177.578V168.931H533.671V243.692ZM516.69 207.373C516.69 199.931 514.699 193.982 510.716 189.527C506.68 184.968 501.518 182.688 495.229 182.688C488.521 182.688 483.227 185.177 479.349 190.156C475.838 194.611 474.082 200.376 474.082 207.451C474.082 214.422 475.838 220.134 479.349 224.589C483.175 229.463 488.468 231.9 495.229 231.9C501.99 231.9 507.335 229.437 511.266 224.51C514.882 220.056 516.69 214.343 516.69 207.373ZM555.997 112.722H573.685V175.298C579.974 169.638 586.918 166.808 594.518 166.808C603.165 166.808 610.083 169.612 615.271 175.22C619.674 180.094 621.875 187.876 621.875 198.568V245.5H604.187V200.219C604.187 194.087 603.086 189.658 600.885 186.933C598.736 184.155 595.251 182.767 590.43 182.767C584.245 182.767 579.896 184.68 577.38 188.505C574.917 192.384 573.685 199.04 573.685 208.473V245.5H555.997V112.722ZM662.597 185.439V245.5H644.909V185.439H637.362V168.931H644.909V140.866H662.597V168.931H676.354V185.439H662.597ZM797.654 206.665C797.654 195.607 801.611 186.199 809.525 178.443C817.439 170.686 827.082 166.808 838.455 166.808C849.88 166.808 859.575 170.713 867.542 178.521C875.403 186.33 879.333 195.921 879.333 207.294C879.333 218.771 875.377 228.389 867.463 236.145C859.497 243.849 849.722 247.701 838.14 247.701C826.663 247.701 817.046 243.771 809.289 235.909C801.533 228.153 797.654 218.405 797.654 206.665ZM815.735 206.979C815.735 214.631 817.779 220.684 821.867 225.139C826.06 229.646 831.589 231.9 838.455 231.9C845.373 231.9 850.902 229.673 855.042 225.218C859.182 220.763 861.252 214.815 861.252 207.373C861.252 199.931 859.182 193.982 855.042 189.527C850.849 185.02 845.32 182.767 838.455 182.767C831.694 182.767 826.217 185.02 822.024 189.527C817.832 194.035 815.735 199.852 815.735 206.979ZM954.566 112.722H972.333V245.5H954.566V237.481C947.596 244.295 939.708 247.701 930.904 247.701C920.422 247.701 911.722 243.875 904.804 236.224C897.939 228.415 894.506 218.667 894.506 206.979C894.506 195.554 897.939 186.016 904.804 178.364C911.617 170.66 920.186 166.808 930.511 166.808C939.473 166.808 947.491 170.477 954.566 177.814V112.722ZM912.587 206.979C912.587 214.317 914.552 220.291 918.483 224.903C922.518 229.568 927.602 231.9 933.734 231.9C940.285 231.9 945.578 229.646 949.614 225.139C953.649 220.475 955.667 214.553 955.667 207.373C955.667 200.193 953.649 194.27 949.614 189.606C945.578 185.046 940.337 182.767 933.891 182.767C927.812 182.767 922.728 185.073 918.64 189.685C914.605 194.349 912.587 200.114 912.587 206.979ZM1064.39 211.382H1009.52C1009.99 217.671 1012.03 222.676 1015.65 226.397C1019.27 230.066 1023.9 231.9 1029.56 231.9C1033.97 231.9 1037.61 230.852 1040.49 228.755C1043.32 226.659 1046.54 222.781 1050.16 217.121L1065.1 225.454C1062.79 229.384 1060.35 232.765 1057.79 235.595C1055.22 238.372 1052.47 240.678 1049.53 242.513C1046.6 244.295 1043.43 245.605 1040.02 246.443C1036.61 247.282 1032.92 247.701 1028.93 247.701C1017.51 247.701 1008.34 244.033 1001.42 236.695C994.502 229.306 991.043 219.505 991.043 207.294C991.043 195.188 994.397 185.387 1001.11 177.893C1007.87 170.503 1016.83 166.808 1027.99 166.808C1039.26 166.808 1048.17 170.398 1054.72 177.578C1061.22 184.706 1064.47 194.585 1064.47 207.215L1064.39 211.382ZM1046.23 196.917C1043.77 187.483 1037.82 182.767 1028.38 182.767C1026.24 182.767 1024.22 183.107 1022.33 183.789C1020.44 184.417 1018.71 185.361 1017.14 186.619C1015.62 187.824 1014.31 189.292 1013.21 191.021C1012.11 192.75 1011.27 194.716 1010.7 196.917H1046.23ZM1083.81 168.931H1101.49V175.77C1104.74 172.363 1107.63 170.031 1110.14 168.773C1112.71 167.463 1115.75 166.808 1119.26 166.808C1123.93 166.808 1128.8 168.328 1133.88 171.368L1125.79 187.562C1122.43 185.151 1119.16 183.946 1115.96 183.946C1106.32 183.946 1101.49 191.231 1101.49 205.8V245.5H1083.81V168.931ZM1188.52 181.98L1173.9 189.763C1171.59 185.046 1168.74 182.688 1165.33 182.688C1163.7 182.688 1162.32 183.238 1161.16 184.339C1160.01 185.387 1159.43 186.75 1159.43 188.427C1159.43 191.362 1162.84 194.27 1169.65 197.153C1179.03 201.188 1185.35 204.909 1188.6 208.316C1191.85 211.722 1193.47 216.308 1193.47 222.073C1193.47 229.463 1190.75 235.647 1185.3 240.626C1180 245.343 1173.61 247.701 1166.11 247.701C1153.27 247.701 1144.18 241.438 1138.84 228.913L1153.93 221.916C1156.03 225.585 1157.62 227.917 1158.73 228.913C1160.87 230.904 1163.44 231.9 1166.43 231.9C1172.4 231.9 1175.39 229.175 1175.39 223.724C1175.39 220.58 1173.09 217.645 1168.47 214.919C1166.69 214.028 1164.91 213.164 1163.13 212.325C1161.35 211.487 1159.54 210.622 1157.7 209.731C1152.57 207.215 1148.95 204.7 1146.85 202.184C1144.18 198.987 1142.85 194.873 1142.85 189.842C1142.85 183.186 1145.12 177.683 1149.68 173.333C1154.35 168.983 1160.01 166.808 1166.67 166.808C1176.47 166.808 1183.75 171.866 1188.52 181.98Z" fill="#5B6970"/>
<path d="M781.46 130.646V152.343C770.873 143.486 759.92 139.058 748.6 139.058C736.126 139.058 725.618 143.539 717.076 152.5C708.481 161.41 704.183 172.311 704.183 185.204C704.183 197.939 708.481 208.683 717.076 217.435C725.671 226.187 736.205 230.563 748.678 230.563C755.125 230.563 760.601 229.515 765.108 227.419C767.624 226.371 770.218 224.956 772.891 223.174C775.616 221.392 778.473 219.243 781.46 216.728V238.818C770.978 244.74 759.972 247.701 748.442 247.701C731.095 247.701 716.29 241.648 704.026 229.542C691.815 217.33 685.709 202.603 685.709 185.361C685.709 169.9 690.819 156.117 701.039 144.01C713.617 129.179 729.89 121.763 749.857 121.763C760.758 121.763 771.293 124.724 781.46 130.646Z" fill="#F5D7A5"/>
</svg>
