<svg width="32" height="32" viewBox="0 0 32 32" fill="none" xmlns="http://www.w3.org/2000/svg">
<path d="M13.7357 9.84272C12.1575 11.0418 10.664 12.349 9.26626 13.7551C2.68014 20.3548 -0.6546 27.7086 1.81404 30.1846C4.28267 32.6583 11.6237 29.3144 18.2075 22.7171C19.6109 21.3157 20.9155 19.8184 22.112 18.2361C25.9956 23.4016 27.5773 28.2608 25.6598 30.1822C23.1888 32.6583 15.8501 29.3144 9.26395 22.7171C2.68246 16.1151 -0.652284 8.76366 1.81635 6.28765C3.73383 4.36856 8.5831 5.95349 13.7381 9.84272M12.5779 18.2361C12.5779 18.5438 12.6998 18.8389 12.917 19.0565C13.1341 19.2741 13.4287 19.3964 13.7357 19.3964C14.0428 19.3964 14.3374 19.2741 14.5545 19.0565C14.7717 18.8389 14.8936 18.5438 14.8936 18.2361C14.8936 17.9284 14.7717 17.6333 14.5545 17.4157C14.3374 17.1981 14.0428 17.0758 13.7357 17.0758C13.4287 17.0758 13.1341 17.1981 12.917 17.4157C12.6998 17.6333 12.5779 17.9284 12.5779 18.2361ZM18.3905 8.13248C17.661 8.00485 17.661 6.95828 18.3905 6.83298C19.6792 6.60928 20.8721 6.00562 21.8168 5.09914C22.7614 4.19266 23.4149 3.02453 23.6937 1.74403L23.7354 1.54214C23.8928 0.822778 24.9164 0.818137 25.0785 1.53518L25.1341 1.76956C25.4248 3.04371 26.0844 4.2035 27.0303 5.10345C27.9762 6.00341 29.1663 6.60345 30.4512 6.82833C31.1829 6.95596 31.1829 8.00949 30.4512 8.1348C29.1663 8.35968 27.9762 8.95973 27.0303 9.85968C26.0844 10.7596 25.4248 11.9194 25.1341 13.1936L25.0785 13.4279C24.9164 14.1473 23.8928 14.1427 23.7354 13.4233L23.689 13.2214C23.4103 11.9409 22.7568 10.7728 21.8122 9.86632C20.8675 8.95984 19.6746 8.35618 18.3859 8.13248H18.3905Z" stroke="#293239" stroke-width="2" stroke-linecap="round" stroke-linejoin="round"/>
</svg>
